<svg width="304" height="244" viewBox="0 0 304 244" fill="none" xmlns="http://www.w3.org/2000/svg">
<path d="M109.13 124.219L90.3326 79.3207V155.862H49.7481V31.2152L38 1.92422H88.8374L118.742 66.2788L148.646 1.92422H187.949V155.862H147.364V79.7483L128.567 124.219H109.13Z" fill="black"/>
<path d="M245.687 121.012C251.098 121.012 255.156 120.228 257.862 118.66C260.568 117.092 261.92 114.527 261.92 110.963C261.92 108.54 261.28 106.616 259.998 105.191C258.716 103.765 256.438 102.34 253.163 100.915L230.521 90.4384C222.119 86.59 215.64 81.4587 211.083 75.0447C206.526 68.6306 204.248 59.2945 204.248 47.0365C204.248 31.3577 208.306 19.6698 216.423 11.9729C224.682 4.13351 238.282 0.142533 257.221 0C265.053 0 272.173 0.356337 278.581 1.06901C284.989 1.78169 290.116 2.56563 293.961 3.42083C297.806 4.13352 299.728 4.48986 299.728 4.48986L295.456 38.912C295.456 38.912 293.676 38.6982 290.116 38.2706C286.698 37.843 282.426 37.4867 277.3 37.2016C272.173 36.774 267.189 36.5602 262.348 36.5602C257.221 36.5602 253.305 37.3442 250.599 38.912C248.036 40.3374 246.755 43.1168 246.755 47.2503C246.755 49.5309 247.751 51.4551 249.745 53.023C251.739 54.4484 254.515 55.945 258.075 57.5129L276.232 65.4235C285.915 69.6996 292.964 75.0447 297.378 81.4587C301.793 87.7303 304 96.71 304 108.398C304 124.219 299.87 136.406 291.611 144.958C283.352 153.51 269.752 157.857 250.813 158C241.415 158 232.657 157.359 224.54 156.076C216.423 154.935 209.232 153.581 202.966 152.014L207.238 117.591C207.238 117.591 208.947 117.876 212.365 118.447C215.925 119.017 220.624 119.587 226.462 120.157C232.301 120.727 238.709 121.012 245.687 121.012Z" fill="black"/>
<path d="M21.1738 226.677C23.7292 226.677 25.6457 226.309 26.9234 225.575C28.2011 224.841 28.8399 223.639 28.8399 221.97C28.8399 220.835 28.5373 219.934 27.9321 219.267C27.3269 218.599 26.2509 217.931 24.7043 217.264L14.0121 212.357C10.0446 210.555 6.98491 208.152 4.83303 205.147C2.68115 202.143 1.60522 197.771 1.60522 192.03C1.60522 184.687 3.52173 179.212 7.35476 175.608C11.255 171.936 17.677 170.067 26.6208 170C30.3193 170 33.6816 170.167 36.7077 170.501C39.7338 170.834 42.1546 171.202 43.9703 171.602C45.7859 171.936 46.6937 172.103 46.6937 172.103L44.6764 188.225C44.6764 188.225 43.8358 188.124 42.1546 187.924C40.5407 187.724 38.5233 187.557 36.1025 187.424C33.6816 187.223 31.328 187.123 29.0416 187.123C26.6208 187.123 24.7715 187.49 23.4938 188.225C22.2834 188.892 21.6782 190.194 21.6782 192.13C21.6782 193.198 22.1489 194.099 23.0904 194.834C24.0318 195.501 25.3431 196.202 27.0242 196.936L35.5981 200.641C40.1709 202.644 43.4995 205.147 45.5842 208.152C47.6688 211.089 48.7111 215.295 48.7111 220.769C48.7111 228.179 46.761 233.886 42.8607 237.892C38.9604 241.897 32.5384 243.933 23.5947 244C19.1565 244 15.0208 243.7 11.1878 243.099C7.35476 242.565 3.95883 241.931 1 241.196L3.01738 225.074C3.01738 225.074 3.82434 225.208 5.43824 225.475C7.1194 225.742 9.33852 226.009 12.0956 226.276C14.8527 226.543 17.8788 226.677 21.1738 226.677Z" fill="black"/>
<path d="M99.1126 186.923H85.7979V242.999H66.0275V186.923H51.3006V170.901H102.139L99.1126 186.923Z" fill="black"/>
<path d="M124.825 218.465C124.825 222.004 125.228 224.574 126.035 226.176C126.842 227.711 128.12 228.479 129.868 228.479C131.684 228.479 132.962 227.711 133.701 226.176C134.508 224.574 134.912 222.004 134.912 218.465V170.901H154.581V217.564C154.581 226.843 152.564 233.586 148.529 237.792C144.494 241.931 138.274 244 129.868 244C121.53 244 115.309 241.931 111.207 237.792C107.173 233.586 105.155 226.843 105.155 217.564V170.901H124.825V218.465Z" fill="black"/>
<path d="M187.217 170.901C194.143 170.901 199.725 171.969 203.961 174.106C208.198 176.175 211.291 179.747 213.241 184.82C215.192 189.827 216.167 196.736 216.167 205.548C216.167 215.028 215.192 222.504 213.241 227.978C211.291 233.452 208.198 237.324 203.961 239.594C199.725 241.864 194.143 242.999 187.217 242.999H163.21V184.62L157.662 170.901H187.217ZM186.007 226.977C188.159 226.977 189.873 226.343 191.151 225.074C192.496 223.739 193.471 221.536 194.076 218.465C194.681 215.328 194.984 211.022 194.984 205.548C194.984 200.541 194.715 196.703 194.177 194.032C193.639 191.295 192.731 189.426 191.454 188.425C190.176 187.424 188.36 186.923 186.007 186.923H182.88V226.977H186.007Z" fill="black"/>
<path d="M222.684 170.901H242.353V242.999H222.684V170.901Z" fill="black"/>
<path d="M276.463 244C269.873 244 264.56 242.899 260.525 240.696C256.491 238.426 253.532 234.621 251.649 229.28C249.833 223.873 248.925 216.463 248.925 207.05C248.925 197.637 249.833 190.261 251.649 184.92C253.532 179.513 256.491 175.708 260.525 173.505C264.56 171.235 269.873 170.1 276.463 170.1C283.053 170.1 288.365 171.235 292.4 173.505C296.435 175.708 299.36 179.513 301.176 184.92C303.059 190.261 304 197.637 304 207.05C304 216.463 303.059 223.873 301.176 229.28C299.36 234.621 296.435 238.426 292.4 240.696C288.365 242.899 283.053 244 276.463 244ZM282.817 206.85C282.817 201.109 282.616 196.736 282.212 193.732C281.876 190.661 281.237 188.558 280.296 187.424C279.422 186.222 278.144 185.621 276.463 185.621C274.849 185.621 273.571 186.222 272.63 187.424C271.688 188.558 271.016 190.661 270.612 193.732C270.276 196.736 270.108 201.109 270.108 206.85C270.108 212.524 270.276 216.93 270.612 220.068C271.016 223.205 271.688 225.408 272.63 226.677C273.571 227.878 274.849 228.479 276.463 228.479C278.144 228.479 279.422 227.878 280.296 226.677C281.237 225.408 281.876 223.205 282.212 220.068C282.616 216.93 282.817 212.524 282.817 206.85Z" fill="black"/>
<path d="M91 0H0V158.94H91V0Z" fill="#1D1D1B"/>
<path d="M80.9412 10.3456H10.7184V158.94H80.9412V10.3456Z" fill="#1D1D1B"/>
<path d="M80.2874 10.3456H10.0646V55.9775H80.2874V10.3456Z" fill="white"/>
<path d="M80.2817 125.535H10.7184V158.935H80.2817V125.535Z" fill="white"/>
<path d="M45.5 38.6814C48.5501 38.6814 51.0227 36.2088 51.0227 33.1587C51.0227 30.1087 48.5501 27.6361 45.5 27.6361C42.45 27.6361 39.9774 30.1087 39.9774 33.1587C39.9774 36.2088 42.45 38.6814 45.5 38.6814Z" fill="#1D1D1B"/>
<path d="M80.2874 68.1238H10.0646V113.756H80.2874V68.1238Z" fill="white"/>
<path d="M45.5 96.4596C48.5501 96.4596 51.0227 93.987 51.0227 90.9369C51.0227 87.8869 48.5501 85.4143 45.5 85.4143C42.45 85.4143 39.9774 87.8869 39.9774 90.9369C39.9774 93.987 42.45 96.4596 45.5 96.4596Z" fill="#1D1D1B"/>
</svg>
